HIERARCHY
ROOT hip
{
  OFFSET 0 0 0
  CHANNELS 6 Xposition Yposition Zposition Zrotation Yrotation Xrotation
  JOINT abdomen
  {
    OFFSET 0 20.6881 -0.73152
    CHANNELS 3 Zrotation Xrotation Yrotation
    JOINT chest
    {
      OFFSET 0 11.7043 -0.48768
      CHANNELS 3 Zrotation Xrotation Yrotation
      JOINT neck
      {
        OFFSET 0 22.1894 -2.19456
        CHANNELS 3 Zrotation Xrotation Yrotation
        JOINT head
        {
          OFFSET -0.24384 7.07133 1.2192
          CHANNELS 3 Zrotation Xrotation Yrotation
          JOINT leftEye
          {
            OFFSET 4.14528 8.04674 8.04672
            CHANNELS 3 Zrotation Xrotation Yrotation
            End Site
            {
              OFFSET 1 0 0
            }
          }
          JOINT rightEye
          {
            OFFSET -3.6576 8.04674 8.04672
            CHANNELS 3 Zrotation Xrotation Yrotation
            End Site
            {
              OFFSET 1 0 0
            }
          }
        }
      }
      JOINT rCollar
      {
        OFFSET -2.68224 19.2634 -4.8768
        CHANNELS 3 Zrotation Xrotation Yrotation
        JOINT rShldr
        {
          OFFSET -8.77824 -1.95073 1.46304
          CHANNELS 3 Zrotation Xrotation Yrotation
          JOINT rForeArm
          {
            OFFSET -28.1742 -1.7115 0.48768
            CHANNELS 3 Zrotation Xrotation Yrotation
            JOINT rHand
            {
              OFFSET -22.5879 0.773209 7.07136
              CHANNELS 3 Zrotation Xrotation Yrotation
              JOINT rThumb1
              {
                OFFSET -1.2192 -0.487915 3.41376
                CHANNELS 3 Zrotation Xrotation Yrotation
                JOINT rThumb2
                {
                  OFFSET -3.37035 -0.52449 3.41376
                  CHANNELS 3 Zrotation Xrotation Yrotation
                  End Site
                  {
                    OFFSET -1.78271 -1.18214 1.43049
                  }
                }
              }
              JOINT rIndex1
              {
                OFFSET -7.75947 0.938293 5.60832
                CHANNELS 3 Zrotation Xrotation Yrotation
                JOINT rIndex2
                {
                  OFFSET -2.54057 -0.884171 1.56538
                  CHANNELS 3 Zrotation Xrotation Yrotation
                  End Site
                  {
                    OFFSET -1.62519 -0.234802 1.16502
                  }
                }
              }
              JOINT rMid1
              {
                OFFSET -8.24714 1.18213 3.41376
                CHANNELS 3 Zrotation Xrotation Yrotation
                JOINT rMid2
                {
                  OFFSET -3.10165 -0.590103 1.0647
                  CHANNELS 3 Zrotation Xrotation Yrotation
                  End Site
                  {
                    OFFSET -2.48547 -0.328903 0.83742
                  }
                }
              }
              JOINT rRing1
              {
                OFFSET -8.82822 0.546677 1.51678
                CHANNELS 3 Zrotation Xrotation Yrotation
                JOINT rRing2
                {
                  OFFSET -2.60934 -0.819778 -0.0198488
                  CHANNELS 3 Zrotation Xrotation Yrotation
                  End Site
                  {
                    OFFSET -2.33842 -0.294052 0.168128
                  }
                }
              }
              JOINT rPinky1
              {
                OFFSET -8.27202 -0.0477905 -0.4584
                CHANNELS 3 Zrotation Xrotation Yrotation
                JOINT rPinky2
                {
                  OFFSET -1.82734 -0.647385 -0.700984
                  CHANNELS 3 Zrotation Xrotation Yrotation
                  End Site
                  {
                    OFFSET -1.69225 -0.51767 -0.607171
                  }
                }
              }
            }
          }
        }
      }
      JOINT lCollar
      {
        OFFSET 2.68224 19.2634 -4.8768
        CHANNELS 3 Zrotation Xrotation Yrotation
        JOINT lShldr
        {
          OFFSET 8.77824 -1.95073 1.46304
          CHANNELS 3 Zrotation Xrotation Yrotation
          JOINT lForeArm
          {
            OFFSET 28.1742 -1.7115 0.48768
            CHANNELS 3 Zrotation Xrotation Yrotation
            JOINT lHand
            {
              OFFSET 22.5879 0.773209 7.07136
              CHANNELS 3 Zrotation Xrotation Yrotation
              JOINT lThumb1
              {
                OFFSET 1.2192 -0.487915 3.41376
                CHANNELS 3 Zrotation Xrotation Yrotation
                JOINT lThumb2
                {
                  OFFSET 3.37035 -0.52449 3.41376
                  CHANNELS 3 Zrotation Xrotation Yrotation
                  End Site
                  {
                    OFFSET 1.78271 -1.18214 1.43049
                  }
                }
              }
              JOINT lIndex1
              {
                OFFSET 7.75947 0.938293 5.60832
                CHANNELS 3 Zrotation Xrotation Yrotation
                JOINT lIndex2
                {
                  OFFSET 2.54057 -0.884171 1.56538
                  CHANNELS 3 Zrotation Xrotation Yrotation
                  End Site
                  {
                    OFFSET 1.62519 -0.234802 1.16502
                  }
                }
              }
              JOINT lMid1
              {
                OFFSET 8.24714 1.18213 3.41376
                CHANNELS 3 Zrotation Xrotation Yrotation
                JOINT lMid2
                {
                  OFFSET 3.10165 -0.590103 1.0647
                  CHANNELS 3 Zrotation Xrotation Yrotation
                  End Site
                  {
                    OFFSET 2.48547 -0.328903 0.83742
                  }
                }
              }
              JOINT lRing1
              {
                OFFSET 8.82822 0.546677 1.51678
                CHANNELS 3 Zrotation Xrotation Yrotation
                JOINT lRing2
                {
                  OFFSET 2.60934 -0.819778 -0.0198488
                  CHANNELS 3 Zrotation Xrotation Yrotation
                  End Site
                  {
                    OFFSET 2.33842 -0.294052 0.168128
                  }
                }
              }
              JOINT lPinky1
              {
                OFFSET 8.27202 -0.0477905 -0.4584
                CHANNELS 3 Zrotation Xrotation Yrotation
                JOINT lPinky2
                {
                  OFFSET 1.82734 -0.647385 -0.700984
                  CHANNELS 3 Zrotation Xrotation Yrotation
                  End Site
                  {
                    OFFSET 1.69225 -0.51767 -0.607171
                  }
                }
              }
            }
          }
        }
      }
    }
  }
  JOINT rButtock
  {
    OFFSET -8.77824 4.35084 1.2192
    CHANNELS 3 Zrotation Xrotation Yrotation
    JOINT rThigh
    {
      OFFSET 0 -1.70687 -2.19456
      CHANNELS 3 Zrotation Xrotation Yrotation
      JOINT rShin
      {
        OFFSET 0 -36.8199 0.73152
        CHANNELS 3 Zrotation Xrotation Yrotation
        JOINT rFoot
        {
          OFFSET 0.73152 -45.1104 -5.12064
          CHANNELS 3 Zrotation Xrotation Yrotation
          End Site
          {
            OFFSET -1.1221 -3.69964 12.103
          }
        }
      }
    }
  }
  JOINT lButtock
  {
    OFFSET 8.77824 4.35084 1.2192
    CHANNELS 3 Zrotation Xrotation Yrotation
    JOINT lThigh
    {
      OFFSET 0 -1.70687 -2.19456
      CHANNELS 3 Zrotation Xrotation Yrotation
      JOINT lShin
      {
        OFFSET 0 -36.8199 0.73152
        CHANNELS 3 Zrotation Xrotation Yrotation
        JOINT lFoot
        {
          OFFSET -0.73152 -45.1104 -5.12064
          CHANNELS 3 Zrotation Xrotation Yrotation
          End Site
          {
            OFFSET 1.1221 -3.69964 12.103
          }
        }
      }
    }
  }
}
MOTION
Frames:	5
Frame Time:	0.00833333
5.44691 82.6184 43.5042 176.254 0.3367 -169.0 -7.61886 -5.25944 -0.319984 4.61771 3.4682 -0.149103 -0.219532 -18.3225 0.6647 4.71738 31.1319 -3.70523 -0.0 0.0 0.0 -0.0 0.0 0.0 -2.67726e-14 -1.27222e-13 6.06293e-15 81.1295 9.54189 -1.55788 -13.1611 -6.29709 23.881 -1.50576 32.5712 5.15095 -6.63678e-10 -3.83842e-10 1.46825e-09 -1.10909e-09 -6.90861e-10 2.55142e-09 -6.63674e-10 -3.83842e-10 1.46823e-09 7.73091 5.47488 0.417314 -6.63681e-10 -3.83847e-10 1.46825e-09 2.90554 0.965183 0.102902 -6.63677e-10 -3.83848e-10 1.46825e-09 10.2786 0.731801 0.0259123 -6.63687e-10 -3.83845e-10 1.46826e-09 2.22167 -0.733487 -0.20892 -2.68513e-14 -1.27224e-13 5.91384e-15 -81.9554 16.9362 -6.17796 10.3665 -4.36704 -18.4904 4.14854 48.5992 -9.17253 1.38627e-09 1.09799e-09 8.08818e-10 2.42126e-09 1.84446e-09 1.33874e-09 1.38627e-09 1.09799e-09 8.08828e-10 -7.73091 5.47488 -0.417314 1.38628e-09 1.09799e-09 8.08818e-10 -2.90554 0.965183 -0.102902 1.38627e-09 1.09799e-09 8.0881e-10 -10.2786 0.731801 -0.0259123 1.38628e-09 1.09799e-09 8.08793e-10 -2.22167 -0.733487 0.20892 -2.03217e-16 0.0 -3.88251e-19 -0.883168 -27.3289 3.54372 -0.421126 45.0535 0.975865 -5.81168 -9.384 -19.8042 2.03217e-16 0.0 3.88251e-19 -9.76528 -18.5739 -4.23583 0.132216 26.4558 -0.426009 3.81083 -4.22218 20.5011
5.31703 82.5587 43.3548 176.046 0.3826 -169.107 -8.00697 -4.9926 -0.459151 4.63811 3.44575 -0.196188 -0.00305604 -18.3285 0.227008 4.24211 31.1417 -3.02826 -0.0 0.0 0.0 -0.0 0.0 0.0 4.62577e-15 -9.66464e-14 9.77889e-15 81.1027 9.50135 -1.51204 -13.1769 -6.30909 23.9121 -1.49214 32.4443 5.12572 -7.59358e-10 -2.09873e-10 1.19543e-09 -1.28089e-09 -3.87901e-10 2.08341e-09 -7.59352e-10 -2.09875e-10 1.19542e-09 7.73091 5.47488 0.417314 -7.59358e-10 -2.09879e-10 1.19544e-09 2.90554 0.965183 0.102902 -7.59356e-10 -2.0988e-10 1.19543e-09 10.2786 0.731801 0.0259123 -7.59367e-10 -2.09878e-10 1.19544e-09 2.22167 -0.733487 -0.20892 4.55241e-15 -9.66481e-14 9.58049e-15 -81.9211 16.9283 -6.1472 10.3492 -4.35623 -18.458 4.15481 48.6244 -9.18082 1.40074e-09 8.12034e-10 3.99473e-10 2.42957e-09 1.34806e-09 6.33246e-10 1.40073e-09 8.12036e-10 3.99481e-10 -7.73091 5.47488 -0.417314 1.40074e-09 8.12035e-10 3.99474e-10 -2.90554 0.965183 -0.102902 1.40073e-09 8.12035e-10 3.99465e-10 -10.2786 0.731801 -0.0259123 1.40074e-09 8.12036e-10 3.99449e-10 -2.22167 -0.733487 0.20892 -2.03217e-16 0.0 -3.88251e-19 -1.4167 -28.4027 3.02831 -0.46894 46.7478 1.02668 -5.70266 -8.85858 -19.8701 2.03217e-16 0.0 3.88251e-19 -10.0778 -18.2855 -4.06281 0.126408 26.2898 -0.421672 3.81457 -4.38035 20.3523
5.19525 82.5079 43.1884 175.865 0.3681 -169.225 -8.38938 -4.70474 -0.643891 4.65474 3.42563 -0.257566 0.276334 -18.3257 -0.429646 3.56294 31.1837 -2.06662 -0.0 0.0 0.0 -0.0 0.0 0.0 5.39747e-14 -6.37098e-14 1.4502e-14 81.0842 9.48058 -1.46522 -13.1954 -6.32325 23.9489 -1.47221 32.2563 5.08853 -9.36328e-10 1.20961e-10 6.81851e-10 -1.59891e-09 1.88199e-10 1.20206e-09 -9.36319e-10 1.20957e-10 6.81844e-10 7.73091 5.47488 0.417314 -9.36325e-10 1.20954e-10 6.81859e-10 2.90554 0.965183 0.102902 -9.36324e-10 1.20954e-10 6.8185e-10 10.2786 0.731801 0.0259123 -9.36336e-10 1.20954e-10 6.81855e-10 2.22167 -0.733487 -0.20892 5.39347e-14 -6.37116e-14 1.42255e-14 -81.8811 16.9214 -6.11308 10.3265 -4.342 -18.4153 4.15907 48.6409 -9.18638 1.42223e-09 3.01857e-10 -3.37432e-10 2.43644e-09 4.6332e-10 -6.36435e-10 1.42222e-09 3.01858e-10 -3.37426e-10 -7.73091 5.47488 -0.417314 1.42223e-09 3.01857e-10 -3.3743e-10 -2.90554 0.965183 -0.102902 1.42223e-09 3.01855e-10 -3.37438e-10 -10.2786 0.731801 -0.0259123 1.42224e-09 3.01856e-10 -3.37451e-10 -2.22167 -0.733487 0.20892 -2.03217e-16 0.0 -3.88251e-19 -1.97314 -29.4808 2.48287 -0.520257 48.4332 1.08054 -5.58321 -8.33963 -19.906 2.03217e-16 0.0 3.88251e-19 -10.3863 -17.9638 -3.90501 0.120014 26.1129 -0.417509 3.8113 -4.53866 20.1812
5.07811 82.471 43.0085 175.714 0.3081 -169.336 -8.73024 -4.42191 -0.852102 4.66799 3.40586 -0.325586 0.542003 -18.3174 -1.09286 2.89342 31.2385 -1.11385 -0.0 0.0 0.0 -0.0 0.0 0.0 1.01015e-13 -3.07236e-14 1.86085e-14 81.0705 9.45271 -1.43337 -13.2122 -6.33605 23.9821 -1.4514 32.0573 5.04938 -1.07187e-09 4.61243e-10 1.0748e-10 -1.84694e-09 7.8188e-10 2.14648e-10 -1.07186e-09 4.61236e-10 1.07481e-10 7.73091 5.47488 0.417314 -1.07186e-09 4.61235e-10 1.07493e-10 2.90554 0.965183 0.102902 -1.07187e-09 4.61236e-10 1.07479e-10 10.2786 0.731801 0.0259123 -1.07188e-09 4.61235e-10 1.07485e-10 2.22167 -0.733487 -0.20892 1.01009e-13 -3.07253e-14 1.82556e-14 -81.8451 16.8901 -6.08049 10.2929 -4.32108 -18.352 4.17437 48.7032 -9.20673 1.36027e-09 -2.43358e-10 -1.08362e-09 2.29913e-09 -4.78931e-10 -1.91874e-09 1.36026e-09 -2.43359e-10 -1.08362e-09 -7.73091 5.47488 -0.417314 1.36027e-09 -2.4336e-10 -1.08362e-09 -2.90554 0.965183 -0.102902 1.36027e-09 -2.43362e-10 -1.08362e-09 -10.2786 0.731801 -0.0259123 1.36028e-09 -2.43362e-10 -1.08363e-09 -2.22167 -0.733487 0.20892 -2.03217e-16 0.0 -3.88251e-19 -2.5147 -30.5429 1.93462 -0.572134 50.0095 1.13521 -5.47556 -7.88428 -19.9248 2.03217e-16 0.0 3.88251e-19 -10.6678 -17.6242 -3.7774 0.113274 25.9226 -0.414007 3.8034 -4.68606 20.0123
4.97076 82.4411 42.8131 175.605 0.2156 -169.436 -8.99447 -4.17019 -1.06175 4.67828 3.38446 -0.392598 0.717058 -18.3097 -1.55031 2.44907 31.2946 -0.464621 -0.0 0.0 0.0 -0.0 0.0 0.0 1.25486e-13 1.16475e-18 2.04748e-14 81.0585 9.39083 -1.43249 -13.2226 -6.34396 24.0026 -1.43486 31.8971 5.01802 -1.04326e-09 6.63553e-10 -3.47705e-10 -1.80874e-09 1.13759e-09 -5.71581e-10 -1.04325e-09 6.63546e-10 -3.47698e-10 7.73091 5.47488 0.417314 -1.04326e-09 6.63545e-10 -3.47689e-10 2.90554 0.965183 0.102902 -1.04326e-09 6.63547e-10 -3.47705e-10 10.2786 0.731801 0.0259123 -1.04327e-09 6.63545e-10 -3.47698e-10 2.22167 -0.733487 -0.20892 1.25488e-13 -3.88251e-19 2.00773e-14 -81.8226 16.8089 -6.05435 10.2428 -4.29019 -18.2574 4.21404 48.8655 -9.25968 1.12437e-09 -6.34425e-10 -1.52081e-09 1.87489e-09 -1.14786e-09 -2.66211e-09 1.12436e-09 -6.34428e-10 -1.52081e-09 -7.73091 5.47488 -0.417314 1.12437e-09 -6.34429e-10 -1.52081e-09 -2.90554 0.965183 -0.102902 1.12436e-09 -6.34431e-10 -1.52081e-09 -10.2786 0.731801 -0.0259123 1.12437e-09 -6.34431e-10 -1.52082e-09 -2.22167 -0.733487 0.20892 -2.03217e-16 0.0 -3.88251e-19 -3.00033 -31.569 1.41231 -0.620605 51.3766 1.18749 -5.40152 -7.54976 -19.9389 2.03217e-16 0.0 3.88251e-19 -10.8992 -17.2821 -3.69476 0.106415 25.7161 -0.411652 3.79362 -4.8114 19.87
